<svg viewBox="0 0 100 100" xmlns="http://www.w3.org/2000/svg">
  <defs>
    <linearGradient id="bladeGrad" x1="0" y1="0" x2="1" y2="1">
      <stop offset="0%" stop-color="#C0C0C0"/>
      <stop offset="50%" stop-color="#808080"/>
      <stop offset="100%" stop-color="#404040"/>
    </linearGradient>
    <linearGradient id="handleGrad" x1="0" y1="0" x2="0" y2="1">
      <stop offset="0%" stop-color="#8A2BE2"/>
      <stop offset="50%" stop-color="#4B0082"/>
      <stop offset="100%" stop-color="#2E0054"/>
    </linearGradient>
  </defs>
  <path d="M25 75 Q35 65 45 55 Q55 45 65 35 Q70 30 75 25" 
        stroke="url(#bladeGrad)" stroke-width="8" fill="none" stroke-linecap="round"/>
  <path d="M20 80 Q15 75 18 70 Q23 72 25 75 Q27 78 25 82 Q22 85 20 80" fill="url(#handleGrad)"/>
  <circle cx="22" cy="77" r="2" fill="#FFD700"/>
  <path d="M70 20 Q80 15 85 18 Q82 23 75 25 Q72 27 68 25 Q65 22 70 20" fill="url(#handleGrad)"/>
  <circle cx="73" cy="22" r="1.5" fill="#FFD700"/>
  <path d="M30 70 L35 65 M40 60 L45 55 M50 50 L55 45" 
        stroke="#FFF" stroke-width="1" opacity="0.6"/>
  <text x="50" y="95" text-anchor="middle" font-size="7" fill="#8A2BE2" font-weight="bold">KARAMBIT</text>
</svg>